<svg id="svg" version="1.1" xmlns="http://www.w3.org/2000/svg" xmlns:xlink="http://www.w3.org/1999/xlink" width="400" height="100" viewBox="0, 0, 400,100"><g id="svgg"><path id="path0" d="M338.915 33.372 C 337.866 35.092,337.006 37.063,337.004 37.750 C 337.000 38.910,337.399 39.133,339.959 39.400 C 340.921 39.500,346.000 33.214,346.000 31.922 C 346.000 29.395,340.676 30.484,338.915 33.372 M195.173 37.750 C 193.020 41.462,190.514 45.962,189.603 47.750 C 188.693 49.538,187.274 51.000,186.448 51.000 C 185.347 51.000,186.039 49.013,189.052 43.523 C 196.268 30.375,192.658 27.946,185.211 40.938 C 182.550 45.578,179.777 49.574,179.048 49.817 C 178.257 50.081,178.004 49.803,178.420 49.130 C 180.197 46.255,176.089 48.473,171.784 52.712 C 165.959 58.450,165.611 57.343,171.004 50.230 C 175.437 44.383,175.720 43.490,173.418 42.607 C 170.702 41.565,170.381 41.815,164.597 49.500 C 157.003 59.590,155.936 59.152,162.789 48.757 C 165.337 44.893,164.747 42.000,161.411 42.000 C 159.679 42.000,151.905 55.904,152.243 58.398 C 152.706 61.815,155.612 62.713,158.235 60.249 C 160.529 58.093,160.576 58.091,161.788 60.033 C 163.558 62.866,164.652 62.540,170.690 57.382 C 176.142 52.724,179.218 52.010,175.142 56.348 C 172.851 58.787,173.046 61.420,175.590 62.396 C 176.938 62.913,183.000 55.921,183.000 53.850 C 183.000 53.382,183.857 53.000,184.904 53.000 C 186.776 53.000,186.776 53.084,184.904 58.011 C 182.589 64.103,182.517 66.374,184.571 68.429 C 187.045 70.902,187.560 70.404,189.408 63.750 C 191.140 57.511,196.868 44.798,201.097 37.803 C 202.957 34.728,203.116 33.844,202.044 32.553 C 199.997 30.087,199.322 30.597,195.173 37.750 M273.984 33.238 C 268.216 36.092,260.000 44.020,260.000 46.731 C 260.000 49.857,246.090 61.423,244.384 59.717 C 243.129 58.462,245.336 56.342,247.470 56.750 C 253.261 57.857,258.041 46.107,252.885 43.441 C 249.522 41.701,247.536 42.929,240.217 51.273 C 235.169 57.026,233.421 56.756,236.855 50.753 C 241.527 42.588,238.372 39.321,231.852 45.572 C 229.362 47.959,228.183 48.667,228.845 47.376 C 231.423 42.353,226.525 41.096,221.820 45.572 C 219.327 47.943,218.335 48.536,219.317 47.068 C 220.519 45.271,220.658 44.292,219.849 43.318 C 217.956 41.037,216.335 41.854,213.039 46.750 L 209.841 51.500 210.457 47.797 C 211.864 39.342,204.074 39.398,198.458 47.884 C 191.690 58.111,196.454 66.798,204.535 58.966 C 207.446 56.144,207.660 56.082,207.583 58.085 C 207.429 62.078,210.806 62.923,213.308 59.518 C 214.514 57.878,216.536 55.403,217.803 54.018 L 220.106 51.500 218.560 54.687 C 215.738 60.503,219.740 64.179,223.574 59.292 C 224.778 57.756,226.739 55.375,227.931 54.000 L 230.099 51.500 228.477 54.841 C 226.967 57.951,226.974 58.314,228.582 60.091 C 230.962 62.720,231.879 62.524,235.997 58.503 L 239.578 55.006 239.539 57.714 C 239.449 63.973,247.233 63.293,254.935 56.369 L 260.111 51.715 263.584 55.082 L 267.058 58.448 262.029 60.667 C 256.913 62.925,255.896 64.753,258.375 67.232 C 259.542 68.399,254.582 68.794,225.625 69.842 C 206.856 70.521,177.985 71.915,161.466 72.941 C 144.947 73.966,130.209 74.571,128.716 74.286 C 126.667 73.894,126.000 74.164,126.000 75.383 C 126.000 77.510,134.800 77.518,173.722 75.430 C 189.817 74.566,204.002 74.055,205.243 74.293 C 206.484 74.532,205.099 74.789,202.164 74.864 C 196.057 75.020,139.665 79.666,133.250 80.542 C 129.364 81.073,127.124 83.000,130.393 83.000 C 131.159 83.000,132.047 83.680,132.366 84.512 C 132.822 85.698,134.082 85.907,138.223 85.479 C 151.498 84.107,208.868 81.941,257.795 80.964 C 287.333 80.374,320.050 79.555,330.500 79.144 C 347.039 78.494,349.651 78.597,350.663 79.940 C 352.374 82.210,361.000 77.998,361.000 74.893 C 361.000 72.905,360.593 72.789,355.028 73.192 C 349.233 73.611,349.073 73.557,349.626 71.355 C 350.518 67.798,348.024 67.632,303.550 68.287 C 269.162 68.794,262.995 68.679,265.550 67.578 C 273.674 64.080,275.466 57.299,269.122 54.061 C 262.844 50.857,261.721 48.988,263.910 45.388 C 265.768 42.333,276.684 34.351,277.664 35.331 C 278.435 36.101,272.443 44.506,269.439 46.869 C 266.486 49.192,267.457 53.000,271.003 53.000 C 272.944 53.000,281.000 43.458,281.000 41.159 C 281.000 40.522,281.712 40.000,282.583 40.000 C 284.486 40.000,284.512 39.919,279.533 49.289 C 274.027 59.652,277.177 66.763,284.038 59.459 C 286.380 56.966,286.440 56.957,287.189 58.981 C 288.329 62.064,290.799 62.538,293.331 60.159 C 295.537 58.086,295.572 58.085,296.788 60.033 C 298.402 62.617,299.599 62.515,303.200 59.485 L 306.189 56.970 308.167 59.485 C 310.747 62.765,311.805 62.658,315.028 58.797 C 317.548 55.779,317.697 55.728,317.601 57.916 C 317.433 61.784,320.450 62.866,323.475 60.023 L 326.041 57.613 327.577 59.807 C 329.639 62.751,330.482 62.601,335.341 58.429 C 339.421 54.927,339.507 54.903,339.846 57.179 C 341.332 67.151,353.205 59.991,355.405 47.797 C 355.985 44.579,355.749 43.882,353.604 42.476 C 350.441 40.404,349.413 40.990,340.552 49.929 C 332.357 58.194,331.650 58.210,336.147 50.028 C 339.004 44.830,339.278 43.787,338.000 42.979 C 335.579 41.448,335.143 41.738,331.597 47.250 C 328.284 52.401,323.000 58.119,323.000 56.555 C 323.000 55.546,329.635 44.483,332.685 40.406 C 335.553 36.572,335.593 35.323,332.875 34.460 C 330.607 33.740,330.572 33.774,326.370 40.750 C 323.642 45.278,322.562 45.906,321.638 43.500 C 320.376 40.211,316.767 42.047,309.774 49.535 C 302.007 57.852,299.989 58.689,305.154 51.451 C 306.994 48.872,308.950 46.127,309.500 45.352 C 310.211 44.350,310.067 43.667,309.000 42.987 C 306.276 41.250,305.295 41.930,299.597 49.500 C 292.003 59.590,290.936 59.152,297.789 48.757 C 299.813 45.687,300.031 44.743,299.006 43.507 C 296.950 41.030,295.503 41.744,292.179 46.873 C 290.442 49.553,287.363 53.011,285.336 54.557 L 281.651 57.368 286.116 48.934 C 290.386 40.871,290.745 40.486,294.291 40.190 C 296.510 40.004,298.000 39.357,298.000 38.578 C 298.000 37.739,297.136 37.443,295.566 37.743 C 293.495 38.139,293.215 37.894,293.684 36.099 C 294.218 34.058,292.584 31.000,290.959 31.000 C 290.521 31.000,289.190 32.575,288.000 34.500 C 285.558 38.451,283.296 39.047,282.820 35.865 C 282.200 31.722,278.982 30.765,273.984 33.238 M76.467 47.000 C 71.881 64.488,72.270 64.116,68.607 54.521 C 64.159 42.873,63.519 42.408,61.495 49.370 C 60.262 53.610,59.500 54.900,58.700 54.100 C 57.326 52.726,47.000 52.638,47.000 54.000 C 47.000 54.550,48.883 55.000,51.186 55.000 C 54.064 55.000,56.071 55.657,57.612 57.105 C 60.457 59.778,61.831 58.911,62.625 53.943 C 63.520 48.347,64.088 48.882,68.001 59.003 C 72.383 70.336,72.637 70.193,77.029 53.933 C 79.024 46.545,80.874 39.857,81.138 39.070 C 81.403 38.284,83.411 44.327,85.600 52.500 C 90.423 70.508,90.975 70.853,94.489 58.039 C 97.715 46.278,97.167 46.723,100.692 52.999 C 103.892 58.695,104.729 58.982,108.000 55.500 C 109.989 53.383,111.249 53.000,116.233 53.000 C 119.902 53.000,121.885 52.623,121.500 52.000 C 120.289 50.040,109.480 50.812,107.500 53.000 C 104.974 55.791,104.855 55.716,101.163 49.000 C 96.506 40.529,96.471 40.556,92.917 55.500 C 91.052 63.342,90.693 62.863,86.526 46.974 C 84.367 38.738,82.105 32.000,81.500 32.000 C 80.895 32.000,78.630 38.750,76.467 47.000 M153.500 33.753 C 142.903 34.681,142.169 34.955,141.443 38.259 C 141.013 40.217,141.158 41.553,141.825 41.775 C 142.416 41.972,144.023 43.017,145.396 44.097 L 147.893 46.061 144.446 53.252 C 140.704 61.062,140.147 65.047,142.524 67.020 C 144.455 68.622,144.245 68.912,147.802 59.716 C 155.219 40.537,158.853 37.000,171.140 37.000 C 175.358 37.000,174.986 34.033,170.750 33.890 C 160.887 33.555,156.189 33.517,153.500 33.753 M150.757 41.936 C 149.332 43.972,149.286 43.974,147.568 42.075 C 145.889 40.220,145.929 40.137,148.663 39.803 C 152.347 39.353,152.475 39.483,150.757 41.936 M321.000 47.304 C 321.000 48.021,319.369 50.158,317.375 52.054 C 314.251 55.023,313.927 55.154,315.030 53.000 C 318.273 46.672,321.000 44.070,321.000 47.304 M203.413 53.739 C 201.894 56.331,200.465 57.895,200.238 57.213 C 200.011 56.532,201.068 53.854,202.587 51.261 C 204.106 48.669,205.535 47.105,205.762 47.787 C 205.989 48.468,204.932 51.146,203.413 53.739 M348.413 53.739 C 346.894 56.331,345.465 57.895,345.238 57.213 C 345.011 56.532,346.068 53.854,347.587 51.261 C 349.106 48.669,350.535 47.105,350.762 47.787 C 350.989 48.468,349.932 51.146,348.413 53.739 M224.264 73.704 C 223.034 73.941,220.784 73.947,219.264 73.718 C 217.744 73.488,218.750 73.294,221.500 73.286 C 224.250 73.279,225.494 73.467,224.264 73.704 M279.750 75.746 C 274.387 75.925,265.613 75.925,260.250 75.746 C 254.887 75.566,259.275 75.419,270.000 75.419 C 280.725 75.419,285.113 75.566,279.750 75.746 M234.750 76.735 C 232.137 76.941,227.863 76.941,225.250 76.735 C 222.637 76.529,224.775 76.360,230.000 76.360 C 235.225 76.360,237.363 76.529,234.750 76.735 " stroke="none" fill="#000000" fill-rule="evenodd"></path></g></svg>